<?xml version="1.0" standalone="no"?>
<!DOCTYPE svg PUBLIC "-//W3C//DTD SVG 20010904//EN"
 "http://www.w3.org/TR/2001/REC-SVG-20010904/DTD/svg10.dtd">
<svg version="1.0" xmlns="http://www.w3.org/2000/svg"
 width="2000.000000pt" height="2000.000000pt" viewBox="0 0 2000.000000 2000.000000"
 preserveAspectRatio="xMidYMid meet">
<metadata>
Created by potrace 1.11, written by Peter Selinger 2001-2013
</metadata>
<g transform="translate(0.000000,2000.000000) scale(0.100000,-0.100000)"
fill="#000000" stroke="none">
<path d="M9650 17574 c-392 -25 -616 -49 -895 -95 -1282 -211 -2478 -746
-3505 -1569 -405 -324 -836 -755 -1160 -1160 -899 -1122 -1457 -2453 -1619
-3860 -39 -339 -46 -478 -46 -890 0 -412 7 -551 46 -890 162 -1407 720 -2738
1619 -3860 324 -405 755 -836 1160 -1160 1122 -899 2453 -1457 3860 -1619 339
-39 478 -46 890 -46 412 0 551 7 890 46 2091 241 3997 1358 5246 3074 761
1044 1245 2285 1393 3565 39 339 46 478 46 890 0 412 -7 551 -46 890 -162
1407 -720 2738 -1619 3860 -324 405 -755 836 -1160 1160 -1101 882 -2393 1432
-3780 1609 -307 40 -508 52 -890 55 -206 2 -400 2 -430 0z"/>
</g>
</svg>
